<svg width="368" height="318" xmlns="http://www.w3.org/2000/svg" enable-background="new 0 0.972 368 318" class="centered" version="1.0">

 <g>
  <title>Layer 1</title>
  <polygon points="119.282,270.692 55.473,159.433 120.282,48.177 247.902,48.177 312.714,158.433 247.902,270.692 " class="pol" id="menu-hex-center"/>
  <polygon points="120.01,47.177 248.861,47.177 276.098,0 92.773,0 92.825,0.089 " class="pol" id="menu-hex-top"/>
  <polygon points="313.714,158.433 368.188,158.433 276.7,0.972 249.464,49.149 " class="pol" id="menu-hex-top-left"/>
  <polygon points="313.714,159.433 249.267,271.062 276.503,318.239 368.188,159.433 " class="pol" id="menu-hex-bottom-left"/>
  <polygon points="120.405,271.692 93.168,318.869 275.702,318.869 248.466,271.692 " class="pol" id="menu-hex-bottom"/>
  <polygon points="119.064,47.554 91.827,0.377 0,158.433 54.473,158.433 " class="pol" id="menu-hex-top-right"/>
  <text transform="rotate(-60 78 52)" id="svg_1" font-size="30" fill="white" text-anchor="middle" y="77" x="40">Link</text>
  <polygon points="54.473,159.433 0.377,159.433 92.024,318.833 119.262,271.656 " class="pol" id="menu-hex-bottom-right"/>
  <text transform="rotate(60 301.172 84)" stroke="null" id="svg_2" font-size="30" fill="white" text-anchor="middle" y="95" x="301">Link</text>
  <text transform="rotate(-0.0197409 183 28)" style="cursor: move;" id="svg_3" font-size="30" fill="white" text-anchor="middle" y="39" x="183">Home</text>
  <text transform="rotate(-60 310 180)" id="svg_7" font-size="30" fill="white" text-anchor="middle" y="205" x="272">Link</text>
  <text transform="rotate(60 66.172 220)" stroke="null" id="svg_8" font-size="30" fill="white" text-anchor="middle" y="231" x="66">Link</text>
  <text transform="rotate(-0.0197409 187.172 292)" id="svg_9" font-size="30" fill="white" text-anchor="middle" y="303" x="187">Link</text>
 </g>
</svg>