<svg version="1.0" xmlns="http://www.w3.org/2000/svg" x="-184px" y="-159px"
     class="centered" viewBox="0 0.972 368 318"
     enable-background="new 0 0.972 368 318">
    <style>
        .pol {
        fill: #BBBBBB;
        opacity: 0.5;
        }

        .pol:hover {
        fill: #000000;
        }
    </style>

    <polygon id="menu-hex-center"
             class="pol"
             points="119.282,270.692 55.473,159.433 120.282,48.177 247.902,48.177 312.714,158.433 247.902,270.692 ">
    </polygon>

    <polygon id="menu-hex-top"
             class="pol"
             points="120.01,47.177 248.861,47.177 276.098,0 92.773,0 92.825,0.089 ">
    </polygon>

    <polygon id="menu-hex-top-left"
             class="pol"
             points="313.714,158.433 368.188,158.433 276.7,0.972 249.464,49.149 ">
    </polygon>

    <polygon id="menu-hex-bottom-left"
             class="pol"
             points="313.714,159.433 249.267,271.062 276.503,318.239 368.188,159.433 ">
    </polygon>

    <polygon id="menu-hex-bottom"
             class="pol"
             points="120.405,271.692 93.168,318.869 275.702,318.869 248.466,271.692 ">
    </polygon>

    <polygon id="menu-hex-top-right"
             class="pol"
             points="119.064,47.554 91.827,0.377 0,158.433 54.473,158.433 ">
    </polygon>

    <polygon id="menu-hex-bottom-right"
             class="pol"
             points="54.473,159.433 0.377,159.433 92.024,318.833 119.262,271.656 ">
    </polygon>
</svg>